<?xml version="1.0" encoding="UTF-8" standalone="no"?>
<svg
   enable-background="new 0 0 30 30"
   height="65"
   id="Layer_1"
   version="1.1"
   viewBox="0 0 53.031666 65"
   width="53.031666"
   xml:space="preserve"
   sodipodi:docname="apple.svg"
   inkscape:version="1.1.1 (3bf5ae0d25, 2021-09-20)"
   xmlns:inkscape="http://www.inkscape.org/namespaces/inkscape"
   xmlns:sodipodi="http://sodipodi.sourceforge.net/DTD/sodipodi-0.dtd"
   xmlns="http://www.w3.org/2000/svg"
   xmlns:svg="http://www.w3.org/2000/svg"><defs
     id="defs11" /><sodipodi:namedview
     id="namedview9"
     pagecolor="#ffffff"
     bordercolor="#666666"
     borderopacity="1.0"
     inkscape:pageshadow="2"
     inkscape:pageopacity="0.0"
     inkscape:pagecheckerboard="0"
     showgrid="false"
     showborder="false"
     fit-margin-top="0"
     fit-margin-left="0"
     fit-margin-right="0"
     fit-margin-bottom="0"
     inkscape:zoom="9.805214"
     inkscape:cx="26.414518"
     inkscape:cy="33.29861"
     inkscape:window-width="1920"
     inkscape:window-height="1017"
     inkscape:window-x="-8"
     inkscape:window-y="32"
     inkscape:window-maximized="1"
     inkscape:current-layer="Layer_1" /><g
     id="g6"
     transform="matrix(2.1666764,0,0,2.1666764,-5.9864316,-0.00216668)"><path
       d="m 23.22,16.815 c -0.825,-4.154 3.117,-6.59 3.117,-6.59 0,0 -1.537,-2.22 -4.117,-2.79 -2.58,-0.574 -3.871,0.139 -5.159,0.68 -1.29,0.536 -1.934,0.536 -1.934,0.536 -1.861,0 -3.222,-1.97 -6.771,-1.07 -2.441,0.616 -5.015,3.436 -5.48,6.804 -0.466,3.367 0.538,7.664 2.472,10.994 1.936,3.332 3.906,4.586 5.303,4.621 1.397,0.035 2.794,-1.002 4.478,-1.256 1.684,-0.246 2.718,0.613 4.37,1.078 1.648,0.465 2.224,0.031 4.117,-1.58 1.9,-1.611 3.623,-6.236 3.623,-6.236 0,0 -3.193,-1.032 -4.019,-5.191 z"
       id="path2" /><path
       d="m 19.568,4.747 c 1.828,-1.865 1.207,-4.746 1.207,-4.746 0,0 -2.566,0.447 -4.285,2.238 -1.721,1.793 -1.436,4.619 -1.436,4.619 0,0 2.684,-0.248 4.514,-2.111 z"
       id="path4" /></g></svg>
