<svg width="12" height="24" viewBox="0 0 12 24" fill="none" xmlns="http://www.w3.org/2000/svg">
<path d="M10.0501 23.6667C9.80108 23.6676 9.55506 23.6126 9.3301 23.5059C9.10513 23.3992 8.90693 23.2434 8.75007 23.0501L0.70007 13.0501C0.454933 12.7518 0.320923 12.3778 0.320923 11.9917C0.320923 11.6057 0.454933 11.2316 0.70007 10.9334L9.0334 0.933386C9.3163 0.593025 9.72282 0.378984 10.1635 0.338351C10.6042 0.297718 11.043 0.433822 11.3834 0.716719C11.7238 0.999617 11.9378 1.40614 11.9784 1.84685C12.0191 2.28756 11.883 2.72636 11.6001 3.06672L4.15007 12.0001L11.3501 20.9334C11.5539 21.178 11.6833 21.4759 11.7231 21.7918C11.7629 22.1078 11.7114 22.4285 11.5746 22.716C11.4379 23.0036 11.2216 23.2459 10.9514 23.4144C10.6813 23.5829 10.3685 23.6704 10.0501 23.6667Z" fill="#B0A8B9"/>
</svg>
