<?xml version="1.0" encoding="UTF-8" standalone="no"?>
<svg
   xmlns:dc="http://purl.org/dc/elements/1.1/"
   xmlns:cc="http://creativecommons.org/ns#"
   xmlns:rdf="http://www.w3.org/1999/02/22-rdf-syntax-ns#"
   xmlns:svg="http://www.w3.org/2000/svg"
   xmlns="http://www.w3.org/2000/svg"
   xmlns:sodipodi="http://sodipodi.sourceforge.net/DTD/sodipodi-0.dtd"
   xmlns:inkscape="http://www.inkscape.org/namespaces/inkscape"
   width="11.664551"
   height="23.335514"
   viewBox="0 0 11.664551 23.335514"
   version="1.1"
   id="svg4"
   sodipodi:docname="back.svg"
   style="fill:none"
   inkscape:version="0.92.5 (2060ec1f9f, 2020-04-08)">
  <metadata
     id="metadata10">
    <rdf:RDF>
      <cc:Work
         rdf:about="">
        <dc:format>image/svg+xml</dc:format>
        <dc:type
           rdf:resource="http://purl.org/dc/dcmitype/StillImage" />
        <dc:title></dc:title>
      </cc:Work>
    </rdf:RDF>
  </metadata>
  <defs
     id="defs8" />
  <sodipodi:namedview
     pagecolor="#ffffff"
     bordercolor="#666666"
     borderopacity="1"
     objecttolerance="10"
     gridtolerance="10"
     guidetolerance="10"
     inkscape:pageopacity="0"
     inkscape:pageshadow="2"
     inkscape:window-width="1326"
     inkscape:window-height="740"
     id="namedview6"
     showgrid="false"
     fit-margin-top="0"
     fit-margin-left="0"
     fit-margin-right="0"
     fit-margin-bottom="0"
     showborder="false"
     inkscape:zoom="9.8333333"
     inkscape:cx="5.679077"
     inkscape:cy="11.666813"
     inkscape:window-x="0"
     inkscape:window-y="0"
     inkscape:window-maximized="1"
     inkscape:current-layer="svg4" />
  <path
     d="m 9.729177,23.335402 c -0.24902,9e-4 -0.49504,-0.0541 -0.72,-0.1608 -0.22497,-0.1067 -0.42317,-0.2625 -0.58003,-0.4558 l -8.05,-10 C 0.13401,12.420502 0,12.046502 0,11.660402 c 0,-0.386 0.13401,-0.7601 0.379147,-1.0583 L 8.712477,0.60208751 c 0.2829,-0.340361 0.68942,-0.554402 1.1301,-0.595035 0.4407,-0.040633 0.8795,0.095471 1.2199,0.378368 0.3404,0.282898 0.5544,0.68942099 0.595,1.13013099 0.0407,0.44071 -0.0954,0.87951 -0.3783,1.21987 l -7.45003,8.9333805 7.20003,8.9333 c 0.2038,0.2446 0.3332,0.5425 0.373,0.8584 0.0398,0.316 -0.0117,0.6367 -0.1485,0.9242 -0.1367,0.2876 -0.353,0.5299 -0.6232,0.6984 -0.2701,0.1685 -0.5829,0.256 -0.9013,0.2523 z"
     id="path2"
     inkscape:connector-curvature="0"
     style="fill:#b0a8b9" />
</svg>
