<?xml version="1.0" encoding="UTF-8" standalone="no"?>
<!-- Created with Inkscape (http://www.inkscape.org/) -->

<svg
   width="6.3499999mm"
   height="6.3499999mm"
   viewBox="0 0 6.3499999 6.3499999"
   version="1.1"
   id="svg5"
   inkscape:version="1.1.1 (3bf5ae0d25, 2021-09-20)"
   sodipodi:docname="EMPTY_checkbox.svg"
   xmlns:inkscape="http://www.inkscape.org/namespaces/inkscape"
   xmlns:sodipodi="http://sodipodi.sourceforge.net/DTD/sodipodi-0.dtd"
   xmlns="http://www.w3.org/2000/svg"
   xmlns:svg="http://www.w3.org/2000/svg">
  <sodipodi:namedview
     id="namedview7"
     pagecolor="#ffffff"
     bordercolor="#666666"
     borderopacity="1.0"
     inkscape:pageshadow="2"
     inkscape:pageopacity="0.0"
     inkscape:pagecheckerboard="0"
     inkscape:document-units="mm"
     showgrid="false"
     inkscape:zoom="2.9647587"
     inkscape:cx="-7.7577983"
     inkscape:cy="57.171601"
     inkscape:window-width="1920"
     inkscape:window-height="1017"
     inkscape:window-x="-8"
     inkscape:window-y="32"
     inkscape:window-maximized="1"
     inkscape:current-layer="layer1"
     showborder="false"
     fit-margin-top="0"
     fit-margin-left="0"
     fit-margin-right="0"
     fit-margin-bottom="0" />
  <defs
     id="defs2" />
  <g
     inkscape:label="Слой 1"
     inkscape:groupmode="layer"
     id="layer1"
     transform="translate(-81.389346,-111.01803)">
    <path
       id="rect31"
       style="opacity:1;fill:#b0a8b9;stroke-width:0.0341311;stroke-miterlimit:4;stroke-dasharray:none;image-rendering:auto"
       d="m 82.447748,111.01803 c -0.586315,0 -1.058402,0.47195 -1.058402,1.05826 v 4.23334 c 0,0.58631 0.472087,1.0584 1.058402,1.0584 h 4.233333 c 0.586314,0 1.058265,-0.47209 1.058265,-1.0584 v -4.23334 c 0,-0.58631 -0.471951,-1.05826 -1.058265,-1.05826 z m 0,0.52913 h 4.233333 c 0.293157,0 0.529132,0.23598 0.529132,0.52913 v 4.23334 c 0,0.29315 -0.235975,0.52926 -0.529132,0.52926 h -4.233333 c -0.293157,0 -0.52927,-0.23611 -0.529269,-0.52926 v -4.23334 c 0,-0.29315 0.236112,-0.52913 0.529269,-0.52913 z" />
  </g>
</svg>
