<?xml version="1.0" encoding="UTF-8" standalone="no"?>
<!-- Generator: Adobe Illustrator 16.0.0, SVG Export Plug-In . SVG Version: 6.00 Build 0)  -->

<svg
   xmlns:dc="http://purl.org/dc/elements/1.1/"
   xmlns:cc="http://creativecommons.org/ns#"
   xmlns:rdf="http://www.w3.org/1999/02/22-rdf-syntax-ns#"
   xmlns:svg="http://www.w3.org/2000/svg"
   xmlns="http://www.w3.org/2000/svg"
   xmlns:sodipodi="http://sodipodi.sourceforge.net/DTD/sodipodi-0.dtd"
   xmlns:inkscape="http://www.inkscape.org/namespaces/inkscape"
   version="1.1"
   id="Capa_1"
   x="0px"
   y="0px"
   width="20.000002"
   height="21.333336"
   viewBox="0 0 20.000002 21.333336"
   xml:space="preserve"
   sodipodi:docname="enter_icon_gray.svg"
   inkscape:version="0.92.5 (2060ec1f9f, 2020-04-08)"><metadata
   id="metadata22"><rdf:RDF><cc:Work
       rdf:about=""><dc:format>image/svg+xml</dc:format><dc:type
         rdf:resource="http://purl.org/dc/dcmitype/StillImage" /><dc:title></dc:title></cc:Work></rdf:RDF></metadata><defs
   id="defs39" /><sodipodi:namedview
   id="namedview37"
   pagecolor="#ffffff"
   bordercolor="#666666"
   borderopacity="1.0"
   inkscape:pageshadow="2"
   inkscape:pageopacity="0.0"
   inkscape:pagecheckerboard="0"
   showgrid="false"
   inkscape:zoom="16.875"
   inkscape:cx="15"
   inkscape:cy="16.000002"
   inkscape:window-width="1326"
   inkscape:window-height="740"
   inkscape:window-x="0"
   inkscape:window-y="0"
   inkscape:window-maximized="1"
   inkscape:current-layer="Capa_1"
   fit-margin-top="0"
   fit-margin-left="0"
   fit-margin-right="0"
   fit-margin-bottom="0"
   showborder="false" />
<g
   id="g4"
   transform="matrix(0.04166667,0,0,0.04166667,-0.66666672,0)"
   style="fill:#b0a8b9;fill-opacity:1">
	<path
   d="M 176,256 H 16 v -64 h 160 v -64 l 96,96 -96,96 z M 496,0 V 416 L 304,512 V 416 H 112 V 288 h 32 v 96 H 304 V 96 L 432,32 H 144 V 160 H 112 V 0 Z"
   id="path2"
   style="fill:#b0a8b9;fill-opacity:1"
   inkscape:connector-curvature="0" />
</g>
<g
   id="g6"
   transform="matrix(0.66666667,0,0,0.66666667,-10.666667,0)">
</g>
<g
   id="g8"
   transform="matrix(0.66666667,0,0,0.66666667,-10.666667,0)">
</g>
<g
   id="g10"
   transform="matrix(0.66666667,0,0,0.66666667,-10.666667,0)">
</g>
<g
   id="g12"
   transform="matrix(0.66666667,0,0,0.66666667,-10.666667,0)">
</g>
<g
   id="g14"
   transform="matrix(0.66666667,0,0,0.66666667,-10.666667,0)">
</g>
<g
   id="g16"
   transform="matrix(0.66666667,0,0,0.66666667,-10.666667,0)">
</g>
<g
   id="g18"
   transform="matrix(0.66666667,0,0,0.66666667,-10.666667,0)">
</g>
<g
   id="g20"
   transform="matrix(0.66666667,0,0,0.66666667,-10.666667,0)">
</g>
<g
   id="g22"
   transform="matrix(0.66666667,0,0,0.66666667,-10.666667,0)">
</g>
<g
   id="g24"
   transform="matrix(0.66666667,0,0,0.66666667,-10.666667,0)">
</g>
<g
   id="g26"
   transform="matrix(0.66666667,0,0,0.66666667,-10.666667,0)">
</g>
<g
   id="g28"
   transform="matrix(0.66666667,0,0,0.66666667,-10.666667,0)">
</g>
<g
   id="g30"
   transform="matrix(0.66666667,0,0,0.66666667,-10.666667,0)">
</g>
<g
   id="g32"
   transform="matrix(0.66666667,0,0,0.66666667,-10.666667,0)">
</g>
<g
   id="g34"
   transform="matrix(0.66666667,0,0,0.66666667,-10.666667,0)">
</g>
</svg>