<?xml version="1.0" encoding="UTF-8" standalone="no"?>
<svg
   xmlns:serif="http://www.serif.com/"
   xmlns:dc="http://purl.org/dc/elements/1.1/"
   xmlns:cc="http://creativecommons.org/ns#"
   xmlns:rdf="http://www.w3.org/1999/02/22-rdf-syntax-ns#"
   xmlns:svg="http://www.w3.org/2000/svg"
   xmlns="http://www.w3.org/2000/svg"
   xmlns:sodipodi="http://sodipodi.sourceforge.net/DTD/sodipodi-0.dtd"
   xmlns:inkscape="http://www.inkscape.org/namespaces/inkscape"
   width="30"
   height="22.547213"
   viewBox="0 0 30 22.547213"
   version="1.1"
   xml:space="preserve"
   style="clip-rule:evenodd;fill-rule:evenodd;stroke-linejoin:round;stroke-miterlimit:2"
   id="svg41"
   sodipodi:docname="eye_show.svg"
   inkscape:version="0.92.5 (2060ec1f9f, 2020-04-08)"><metadata
     id="metadata40"><rdf:RDF><cc:Work
         rdf:about=""><dc:format>image/svg+xml</dc:format><dc:type
           rdf:resource="http://purl.org/dc/dcmitype/StillImage" /><dc:title></dc:title></cc:Work></rdf:RDF></metadata><defs
     id="defs45" /><sodipodi:namedview
     id="namedview43"
     pagecolor="#ffffff"
     bordercolor="#666666"
     borderopacity="1.0"
     inkscape:pageshadow="2"
     inkscape:pageopacity="0.0"
     inkscape:pagecheckerboard="0"
     showgrid="false"
     inkscape:zoom="15.000195"
     inkscape:cx="23.949438"
     inkscape:cy="18.000319"
     inkscape:window-width="1326"
     inkscape:window-height="740"
     inkscape:window-x="0"
     inkscape:window-y="0"
     inkscape:window-maximized="1"
     inkscape:current-layer="svg41"
     fit-margin-top="0"
     fit-margin-left="0"
     fit-margin-right="0"
     fit-margin-bottom="0"
     showborder="false" /><g
     id="Strike"
     style="fill:#000000;fill-opacity:1;stroke:none"
     transform="translate(-8.1015625,-27.248864)" /><g
     id="H1"
     style="fill:#000000;fill-opacity:1;stroke:none"
     transform="translate(-8.1015625,-27.248864)" /><g
     id="H2"
     style="fill:#000000;fill-opacity:1;stroke:none"
     transform="translate(-8.1015625,-27.248864)" /><g
     id="H3"
     style="fill:#000000;fill-opacity:1;stroke:none"
     transform="translate(-8.1015625,-27.248864)" /><g
     id="list-ul"
     style="fill:#000000;fill-opacity:1;stroke:none"
     transform="translate(-8.1015625,-27.248864)" /><g
     id="hamburger-1"
     style="fill:#000000;fill-opacity:1;stroke:none"
     transform="translate(-8.1015625,-27.248864)" /><g
     id="hamburger-2"
     style="fill:#000000;fill-opacity:1;stroke:none"
     transform="translate(-8.1015625,-27.248864)" /><g
     id="list-ol"
     style="fill:#000000;fill-opacity:1;stroke:none"
     transform="translate(-8.1015625,-27.248864)" /><g
     id="list-task"
     style="fill:#000000;fill-opacity:1;stroke:none"
     transform="translate(-8.1015625,-27.248864)" /><g
     id="trash"
     style="fill:#000000;fill-opacity:1;stroke:none"
     transform="translate(-8.1015625,-27.248864)" /><g
     id="vertical-menu"
     style="fill:#000000;fill-opacity:1;stroke:none"
     transform="translate(-8.1015625,-27.248864)" /><g
     id="horizontal-menu"
     style="fill:#000000;fill-opacity:1;stroke:none"
     transform="translate(-8.1015625,-27.248864)" /><g
     id="sidebar-2"
     style="fill:#000000;fill-opacity:1;stroke:none"
     transform="translate(-8.1015625,-27.248864)" /><g
     id="Pen"
     style="fill:#000000;fill-opacity:1;stroke:none"
     transform="translate(-8.1015625,-27.248864)" /><g
     id="Pen1"
     serif:id="Pen"
     style="fill:#000000;fill-opacity:1;stroke:none"
     transform="translate(-8.1015625,-27.248864)" /><g
     id="clock"
     style="fill:#000000;fill-opacity:1;stroke:none"
     transform="translate(-8.1015625,-27.248864)" /><g
     id="external-link"
     style="fill:#000000;fill-opacity:1;stroke:none"
     transform="translate(-8.1015625,-27.248864)" /><g
     id="hr"
     style="fill:#000000;fill-opacity:1;stroke:none"
     transform="translate(-8.1015625,-27.248864)" /><g
     id="info"
     style="fill:#000000;fill-opacity:1;stroke:none"
     transform="translate(-8.1015625,-27.248864)" /><g
     id="warning"
     style="fill:#000000;fill-opacity:1;stroke:none"
     transform="translate(-8.1015625,-27.248864)" /><g
     id="plus-circle"
     style="fill:#000000;fill-opacity:1;stroke:none"
     transform="translate(-8.1015625,-27.248864)" /><g
     id="minus-circle"
     style="fill:#000000;fill-opacity:1;stroke:none"
     transform="translate(-8.1015625,-27.248864)" /><g
     id="vue"
     style="fill:#000000;fill-opacity:1;stroke:none"
     transform="translate(-8.1015625,-27.248864)" /><g
     id="cog"
     style="fill:#000000;fill-opacity:1;stroke:none"
     transform="translate(-8.1015625,-27.248864)" /><g
     id="logo"
     style="fill:#000000;fill-opacity:1;stroke:none"
     transform="translate(-8.1015625,-27.248864)" /><g
     id="eye"
     style="fill:#000000;fill-opacity:1;stroke:none"
     transform="translate(-8.1015625,-27.248864)" /><g
     id="toggle-off"
     style="fill:#000000;fill-opacity:1;stroke:none"
     transform="translate(-8.1015625,-27.248864)" /><g
     id="shredder"
     style="fill:#000000;fill-opacity:1;stroke:none"
     transform="translate(-8.1015625,-27.248864)" /><g
     id="spinner--loading--dots-"
     serif:id="spinner [loading, dots]"
     style="fill:#000000;fill-opacity:1;stroke:none"
     transform="translate(-8.1015625,-27.248864)" /><g
     id="react"
     style="fill:#000000;fill-opacity:1;stroke:none"
     transform="translate(-8.1015625,-27.248864)" /><path
     id="path4354"
     style="fill:#b0a8b9;fill-opacity:1;stroke:none;stroke-width:0.62632525px;stroke-linecap:butt;stroke-linejoin:miter;stroke-opacity:1"
     d="m 15,6.2754901 c -1.091177,0.06506 -1.651189,0.272707 -2.663105,0.851411 -0.712997,0.407754 -1.335563,1.106962 -1.718724,1.718724 -0.383162,0.611762 -0.6397825,1.5614679 -0.6397825,2.4514759 0,2.771489 2.2501225,5.021612 5.0216115,5.021612 0.890008,0 1.727415,-0.23267 2.4527,-0.639782 0,0 1.131008,-0.529531 1.886316,-1.760316 0.755306,-1.230786 0.682596,-2.621514 0.682596,-2.621514 C 19.982462,8.9176921 17.771489,6.2754901 15,6.2754901 Z m -0.193279,1.989072 c 1.001,-0.02495 2.1807,0.287091 2.771978,1.149894 0.187297,0.273307 0.324477,0.567732 0.412249,0.8697599 0.363892,1.332431 -0.07301,3.137296 -2.041673,3.892514 -0.298758,0.09896 -0.617949,0.152911 -0.949275,0.152911 -1.673541,0 -3.034009,-1.857259 -3.031315,-3.03254 0.0027,-1.175281 0.579084,-2.1047939 1.395775,-2.6692209 0.306259,-0.211661 0.841661,-0.348347 1.442261,-0.363318 z M 15.015903,5.1020974e-6 C 13.154465,0.0300651 11.410697,0.4517031 9.7997885,1.1694711 c 0,10e-7 -1.552139,0.73426 -2.267983,1.203719 -0.671598,0.440442 -1.883869,1.502202 -1.883869,1.502202 C 3.3017225,5.9353761 1.3941997,8.6190131 0,11.424323 c 2.9694085,5.549242 7.6805875,10.274514 13.441526,11.053662 3.194885,0.432165 7.429793,-1.267555 8.715952,-2.093051 1.286159,-0.825497 2.873846,-2.248381 3.707797,-3.149976 0.833951,-0.901595 3.06684,-3.907418 4.134724,-6.063856 C 27.454614,6.4116571 23.40548,1.7918531 17.940792,0.3682161 17.598192,0.2786461 17.251081,0.2056451 16.902218,0.1480231 16.346041,0.0565831 15.119246,-6.218979e-4 15.015903,5.1020974e-6 Z M 15.046483,2.5053061 c 2.953123,-0.0238 5.415296,1.390823 7.512233,3.194013 0.312536,0.26932 1.62639,1.561782 1.964606,1.942588 0.428406,0.482896 0.835596,0.984886 1.223291,1.500978 0.603151,0.802949 1.398222,2.0820419 1.398222,2.0820419 -0.791048,1.433659 -2.035074,3.167248 -3.049665,4.238705 -1.01459,1.071457 -2.028843,2.095707 -3.786087,3.072908 -1.757244,0.977201 -2.763827,1.286227 -4.312103,1.47162 C 10.261094,20.694612 5.7156755,16.169168 2.8514895,11.380285 l 0.0037,-0.0061 c 1.028426,-1.8532959 2.775227,-4.0765179 4.617925,-5.6736249 1.259043,-1.091242 2.7294625,-1.979369 4.2864135,-2.572582 1.042258,-0.397099 2.143288,-0.604471 3.286958,-0.622634 z"
     inkscape:connector-curvature="0" /></svg>