<?xml version="1.0" encoding="UTF-8" standalone="no"?>
<svg
   width="100%"
   height="100%"
   viewBox="0 0 64 64"
   version="1.1"
   xml:space="preserve"
   style="fill-rule:evenodd;clip-rule:evenodd;stroke-linejoin:round;stroke-miterlimit:2;"
   id="svg41"
   sodipodi:docname="eye_show.svg"
   inkscape:version="1.1.1 (3bf5ae0d25, 2021-09-20)"
   xmlns:inkscape="http://www.inkscape.org/namespaces/inkscape"
   xmlns:sodipodi="http://sodipodi.sourceforge.net/DTD/sodipodi-0.dtd"
   xmlns="http://www.w3.org/2000/svg"
   xmlns:svg="http://www.w3.org/2000/svg"
   xmlns:serif="http://www.serif.com/"><defs
     id="defs45" /><sodipodi:namedview
     id="namedview43"
     pagecolor="#ffffff"
     bordercolor="#666666"
     borderopacity="1.0"
     inkscape:pageshadow="2"
     inkscape:pageopacity="0.0"
     inkscape:pagecheckerboard="0"
     showgrid="false"
     inkscape:zoom="8"
     inkscape:cx="1.25"
     inkscape:cy="24.9375"
     inkscape:window-width="1920"
     inkscape:window-height="1017"
     inkscape:window-x="-8"
     inkscape:window-y="32"
     inkscape:window-maximized="1"
     inkscape:current-layer="svg41" /><rect
     id="Icons"
     x="-960"
     y="-256"
     width="1280"
     height="800"
     style="fill:none;" /><g
     id="Strike" /><g
     id="H1" /><g
     id="H2" /><g
     id="H3" /><g
     id="list-ul" /><g
     id="hamburger-1" /><g
     id="hamburger-2" /><g
     id="list-ol" /><g
     id="list-task" /><g
     id="trash" /><g
     id="vertical-menu" /><g
     id="horizontal-menu" /><g
     id="sidebar-2" /><g
     id="Pen" /><g
     id="Pen1"
     serif:id="Pen" /><g
     id="clock" /><g
     id="external-link" /><g
     id="hr" /><g
     id="info" /><g
     id="warning" /><g
     id="plus-circle" /><g
     id="minus-circle" /><g
     id="vue" /><g
     id="cog" /><g
     id="logo" /><path
     style="fill-rule:nonzero"
     d="m 23.749,15.664 c 2.572,-1.146 5.355,-1.82 8.327,-1.868 0.165,-10e-4 2.124,0.092 3.012,0.238 0.557,0.092 1.112,0.207 1.659,0.35 8.725,2.273 15.189,9.649 19.253,17.248 -1.705,3.443 -3.938,6.803 -6.601,9.682 l -2.827,-2.827 c 1.967,-2.12 3.607,-4.48 4.87,-6.769 0,0 -1.27,-2.042 -2.233,-3.324 -0.619,-0.824 -1.27,-1.624 -1.954,-2.395 -0.54,-0.608 -2.637,-2.673 -3.136,-3.103 -3.348,-2.879 -7.279,-5.138 -11.994,-5.1 -1.826,0.029 -3.582,0.389 -5.249,0.995"
     id="path1421" /><path
     style="fill-rule:nonzero"
     d="m 20.034,22.899 c -3.191,2.717 -5.732,6.099 -7.374,9.058 l -0.005,0.01 c 4.573,7.646 11.829,14.872 20.987,13.776 2.472,-0.296 4.778,-1.141 6.885,-2.35 l 2.951,2.95 c -4.107,2.636 -8.815,4.032 -13.916,3.342 -9.198,-1.244 -16.719,-8.788 -21.46,-17.648 2.226,-4.479 5.271,-8.764 9.017,-12.053"
     id="path30" /><path
     d="m 27.453,30.318 c -0.157,0.477 -0.243,0.987 -0.243,1.516 0,2.672 2.169,4.841 4.841,4.841 0.529,0 1.039,-0.085 1.516,-0.243"
     id="path2547" /><g
     id="eye" /><g
     id="toggle-off" /><g
     id="shredder" /><g
     id="spinner--loading--dots-"
     serif:id="spinner [loading, dots]" /><g
     id="react" /><path
     id="path4354"
     style="fill:none;stroke:#000000;stroke-width:1px;stroke-linecap:butt;stroke-linejoin:miter;stroke-opacity:1"
     d="m 40.068,31.834 c -0.0625,-3.799 -3.592,-8.017 -8.017,-8.017 -1.74219,0.10388 -2.636949,0.435502 -4.252589,1.359468 C 26.66003,25.827495 25.665762,26.943252 25.054,27.92 c -0.611762,0.976748 -1.02,2.493 -1.02,3.914 0,4.425 3.592,8.017 8.017,8.017 1.421,0 2.757,-0.37 3.915,-1.02 0,0 1.806943,-0.847044 3.012876,-2.812134 C 40.184809,34.053776 40.068,31.834 40.068,31.834 Z"
     sodipodi:nodetypes="ccssssczc" /></svg>
