<?xml version="1.0" encoding="UTF-8" standalone="no"?>
<svg
   width="33.45586"
   height="30"
   viewBox="0 0 33.45586 30"
   version="1.1"
   xml:space="preserve"
   style="clip-rule:evenodd;fill-rule:evenodd;stroke-linejoin:round;stroke-miterlimit:2"
   id="svg41"
   sodipodi:docname="eye_slash.svg"
   inkscape:version="1.1.1 (3bf5ae0d25, 2021-09-20)"
   xmlns:inkscape="http://www.inkscape.org/namespaces/inkscape"
   xmlns:sodipodi="http://sodipodi.sourceforge.net/DTD/sodipodi-0.dtd"
   xmlns="http://www.w3.org/2000/svg"
   xmlns:svg="http://www.w3.org/2000/svg"
   xmlns:serif="http://www.serif.com/"><defs
     id="defs45" /><sodipodi:namedview
     id="namedview43"
     pagecolor="#ffffff"
     bordercolor="#666666"
     borderopacity="1.0"
     inkscape:pageshadow="2"
     inkscape:pageopacity="0.0"
     inkscape:pagecheckerboard="0"
     showgrid="false"
     inkscape:zoom="6.6594806"
     inkscape:cx="3.3035609"
     inkscape:cy="25.902921"
     inkscape:window-width="1920"
     inkscape:window-height="1017"
     inkscape:window-x="-8"
     inkscape:window-y="32"
     inkscape:window-maximized="1"
     inkscape:current-layer="svg41"
     fit-margin-top="0"
     fit-margin-left="0"
     fit-margin-right="0"
     fit-margin-bottom="0"
     showborder="false" /><g
     id="Strike"
     transform="matrix(0.69848664,0,0,0.69848664,-6.9657794,-6.0996725)" /><g
     id="H1"
     transform="matrix(0.69848664,0,0,0.69848664,-6.9657794,-6.0996725)" /><g
     id="H2"
     transform="matrix(0.69848664,0,0,0.69848664,-6.9657794,-6.0996725)" /><g
     id="H3"
     transform="matrix(0.69848664,0,0,0.69848664,-6.9657794,-6.0996725)" /><g
     id="list-ul"
     transform="matrix(0.69848664,0,0,0.69848664,-6.9657794,-6.0996725)" /><g
     id="hamburger-1"
     transform="matrix(0.69848664,0,0,0.69848664,-6.9657794,-6.0996725)" /><g
     id="hamburger-2"
     transform="matrix(0.69848664,0,0,0.69848664,-6.9657794,-6.0996725)" /><g
     id="list-ol"
     transform="matrix(0.69848664,0,0,0.69848664,-6.9657794,-6.0996725)" /><g
     id="list-task"
     transform="matrix(0.69848664,0,0,0.69848664,-6.9657794,-6.0996725)" /><g
     id="trash"
     transform="matrix(0.69848664,0,0,0.69848664,-6.9657794,-6.0996725)" /><g
     id="vertical-menu"
     transform="matrix(0.69848664,0,0,0.69848664,-6.9657794,-6.0996725)" /><g
     id="horizontal-menu"
     transform="matrix(0.69848664,0,0,0.69848664,-6.9657794,-6.0996725)" /><g
     id="sidebar-2"
     transform="matrix(0.69848664,0,0,0.69848664,-6.9657794,-6.0996725)" /><g
     id="Pen"
     transform="matrix(0.69848664,0,0,0.69848664,-6.9657794,-6.0996725)" /><g
     id="Pen1"
     serif:id="Pen"
     transform="matrix(0.69848664,0,0,0.69848664,-6.9657794,-6.0996725)" /><g
     id="clock"
     transform="matrix(0.69848664,0,0,0.69848664,-6.9657794,-6.0996725)" /><g
     id="external-link"
     transform="matrix(0.69848664,0,0,0.69848664,-6.9657794,-6.0996725)" /><g
     id="hr"
     transform="matrix(0.69848664,0,0,0.69848664,-6.9657794,-6.0996725)" /><g
     id="info"
     transform="matrix(0.69848664,0,0,0.69848664,-6.9657794,-6.0996725)" /><g
     id="warning"
     transform="matrix(0.69848664,0,0,0.69848664,-6.9657794,-6.0996725)" /><g
     id="plus-circle"
     transform="matrix(0.69848664,0,0,0.69848664,-6.9657794,-6.0996725)" /><g
     id="minus-circle"
     transform="matrix(0.69848664,0,0,0.69848664,-6.9657794,-6.0996725)" /><g
     id="vue"
     transform="matrix(0.69848664,0,0,0.69848664,-6.9657794,-6.0996725)" /><g
     id="cog"
     transform="matrix(0.69848664,0,0,0.69848664,-6.9657794,-6.0996725)" /><g
     id="logo"
     transform="matrix(0.69848664,0,0,0.69848664,-6.9657794,-6.0996725)" /><path
     id="path1832"
     style="fill:#b0a8b9;fill-opacity:1;stroke-width:0.698484"
     d="m 16.624449,9.4113666 c 0.03422,-7.2e-4 0.06915,-0.00138 0.103375,-0.00138 3.090804,0 5.599768,2.5096624 5.599768,5.5997674 0,0.03493 0,0.06915 -7.2e-4,0.103376 z M 3.890625,0 1.7273437,2.1621094 6.2976561,6.7324218 C 3.6811254,9.0297444 1.5548313,12.02265 0,15.151172 c 3.3115252,6.188592 8.5647726,11.458036 14.989453,12.326953 3.562632,0.481908 6.849873,-0.493513 9.71836,-2.334375 h 0.0012 L 29.564091,30 31.727372,27.836719 Z M 16.744923,2.4105469 C 14.66902,2.4440743 12.725415,2.914378 10.928907,3.7148437 l 2.184375,2.184375 c 1.164377,-0.4232829 2.39136,-0.6746657 3.666796,-0.6949219 3.293365,-0.026542 6.03803,1.5515571 8.376563,3.5625 0.348545,0.3003492 1.814224,1.7421172 2.191406,2.1667972 0.477766,0.538533 0.931699,1.097884 1.364063,1.673437 0.672642,0.89546 1.559765,2.321484 1.559765,2.321484 -0.882188,1.598837 -2.026857,3.247724 -3.400781,4.728516 l 1.974609,1.974609 c 1.86007,-2.010943 3.419236,-4.358001 4.610157,-6.76289 C 30.61721,9.5609496 26.101718,4.4083633 20.007423,2.8207031 19.62535,2.7208195 19.238667,2.6412139 18.84961,2.5769531 18.229354,2.474974 16.860172,2.4098509 16.744923,2.4105469 Z M 8.3343746,8.7691404 11.840625,12.27539 c -0.453318,0.808848 -0.7125,1.741436 -0.7125,2.733985 0,3.090803 2.508416,5.60039 5.599219,5.60039 0.99218,0 1.925346,-0.258798 2.733984,-0.7125 h 0.0012 l 3.185157,3.186329 c -1.471711,0.84447 -3.081544,1.435045 -4.808203,1.641796 C 11.442713,25.490932 6.3746481,20.443754 3.1804687,15.103125 l 0.00352,-0.007 C 4.3308998,13.029271 6.1055041,10.666928 8.3343756,8.7691398 Z m 5.1820324,5.1820316 4.26914,4.270313 c -0.332872,0.110136 -0.689096,0.169921 -1.058203,0.169921 -1.866356,0 -3.380859,-1.515675 -3.380859,-3.382031 0,-0.3695 0.06026,-0.725025 0.169922,-1.058203 z" /><g
     id="eye"
     transform="matrix(0.69848664,0,0,0.69848664,-6.9657794,-6.0996725)" /><g
     id="toggle-off"
     transform="matrix(0.69848664,0,0,0.69848664,-6.9657794,-6.0996725)" /><g
     id="shredder"
     transform="matrix(0.69848664,0,0,0.69848664,-6.9657794,-6.0996725)" /><g
     id="spinner--loading--dots-"
     serif:id="spinner [loading, dots]"
     transform="matrix(0.69848664,0,0,0.69848664,-6.9657794,-6.0996725)" /><g
     id="react"
     transform="matrix(0.69848664,0,0,0.69848664,-6.9657794,-6.0996725)" /></svg>
