<?xml version="1.0" encoding="UTF-8" standalone="no"?>
<svg
   xmlns:serif="http://www.serif.com/"
   xmlns:dc="http://purl.org/dc/elements/1.1/"
   xmlns:cc="http://creativecommons.org/ns#"
   xmlns:rdf="http://www.w3.org/1999/02/22-rdf-syntax-ns#"
   xmlns:svg="http://www.w3.org/2000/svg"
   xmlns="http://www.w3.org/2000/svg"
   xmlns:sodipodi="http://sodipodi.sourceforge.net/DTD/sodipodi-0.dtd"
   xmlns:inkscape="http://www.inkscape.org/namespaces/inkscape"
   width="20"
   height="17.934078"
   viewBox="0 0 20 17.934078"
   version="1.1"
   xml:space="preserve"
   style="clip-rule:evenodd;fill-rule:evenodd;stroke-linejoin:round;stroke-miterlimit:2"
   id="svg41"
   sodipodi:docname="eye_hide.svg"
   inkscape:version="0.92.5 (2060ec1f9f, 2020-04-08)"><metadata
     id="metadata36"><rdf:RDF><cc:Work
         rdf:about=""><dc:format>image/svg+xml</dc:format><dc:type
           rdf:resource="http://purl.org/dc/dcmitype/StillImage" /><dc:title></dc:title></cc:Work></rdf:RDF></metadata><defs
     id="defs45" /><sodipodi:namedview
     id="namedview43"
     pagecolor="#ffffff"
     bordercolor="#666666"
     borderopacity="1.0"
     inkscape:pageshadow="2"
     inkscape:pageopacity="0.0"
     inkscape:pagecheckerboard="0"
     showgrid="false"
     inkscape:zoom="20.073516"
     inkscape:cx="15"
     inkscape:cy="13.450558"
     inkscape:window-width="1326"
     inkscape:window-height="740"
     inkscape:window-x="0"
     inkscape:window-y="0"
     inkscape:window-maximized="1"
     inkscape:current-layer="svg41"
     fit-margin-top="0"
     fit-margin-left="0"
     fit-margin-right="0"
     fit-margin-bottom="0"
     showborder="false" /><g
     id="Strike"
     transform="matrix(0.41755713,0,0,0.41755713,-4.164161,-3.6464001)" /><g
     id="H1"
     transform="matrix(0.41755713,0,0,0.41755713,-4.164161,-3.6464001)" /><g
     id="H2"
     transform="matrix(0.41755713,0,0,0.41755713,-4.164161,-3.6464001)" /><g
     id="H3"
     transform="matrix(0.41755713,0,0,0.41755713,-4.164161,-3.6464001)" /><g
     id="list-ul"
     transform="matrix(0.41755713,0,0,0.41755713,-4.164161,-3.6464001)" /><g
     id="hamburger-1"
     transform="matrix(0.41755713,0,0,0.41755713,-4.164161,-3.6464001)" /><g
     id="hamburger-2"
     transform="matrix(0.41755713,0,0,0.41755713,-4.164161,-3.6464001)" /><g
     id="list-ol"
     transform="matrix(0.41755713,0,0,0.41755713,-4.164161,-3.6464001)" /><g
     id="list-task"
     transform="matrix(0.41755713,0,0,0.41755713,-4.164161,-3.6464001)" /><g
     id="trash"
     transform="matrix(0.41755713,0,0,0.41755713,-4.164161,-3.6464001)" /><g
     id="vertical-menu"
     transform="matrix(0.41755713,0,0,0.41755713,-4.164161,-3.6464001)" /><g
     id="horizontal-menu"
     transform="matrix(0.41755713,0,0,0.41755713,-4.164161,-3.6464001)" /><g
     id="sidebar-2"
     transform="matrix(0.41755713,0,0,0.41755713,-4.164161,-3.6464001)" /><g
     id="Pen"
     transform="matrix(0.41755713,0,0,0.41755713,-4.164161,-3.6464001)" /><g
     id="Pen1"
     serif:id="Pen"
     transform="matrix(0.41755713,0,0,0.41755713,-4.164161,-3.6464001)" /><g
     id="clock"
     transform="matrix(0.41755713,0,0,0.41755713,-4.164161,-3.6464001)" /><g
     id="external-link"
     transform="matrix(0.41755713,0,0,0.41755713,-4.164161,-3.6464001)" /><g
     id="hr"
     transform="matrix(0.41755713,0,0,0.41755713,-4.164161,-3.6464001)" /><g
     id="info"
     transform="matrix(0.41755713,0,0,0.41755713,-4.164161,-3.6464001)" /><g
     id="warning"
     transform="matrix(0.41755713,0,0,0.41755713,-4.164161,-3.6464001)" /><g
     id="plus-circle"
     transform="matrix(0.41755713,0,0,0.41755713,-4.164161,-3.6464001)" /><g
     id="minus-circle"
     transform="matrix(0.41755713,0,0,0.41755713,-4.164161,-3.6464001)" /><g
     id="vue"
     transform="matrix(0.41755713,0,0,0.41755713,-4.164161,-3.6464001)" /><g
     id="cog"
     transform="matrix(0.41755713,0,0,0.41755713,-4.164161,-3.6464001)" /><g
     id="logo"
     transform="matrix(0.41755713,0,0,0.41755713,-4.164161,-3.6464001)" /><path
     id="path1832"
     style="fill:#b0a8b9;fill-opacity:1;stroke-width:0.41755557"
     d="m 9.9381387,5.626139 c 0.02046,-4.3e-4 0.04134,-8e-4 0.0618,-8e-4 1.8476903,0 3.3475563,1.500283 3.3475563,3.347556 0,0.02088 0,0.04134 -4.31e-4,0.0618 z M 2.3258257,0 1.0326105,1.292515 3.7647552,4.024659 C 2.2005863,5.398005 0.9294822,7.187171 0,9.05741 c 1.9796383,3.699557 5.1200433,6.849644 8.960734,7.369085 2.129751,0.288086 4.094872,-0.295024 5.809661,-1.395496 h 7.33e-4 l 2.902363,2.903079 1.293214,-1.293215 z M 10.010159,1.441031 C 8.769178,1.461071 7.607286,1.742223 6.533329,2.220743 l 1.305825,1.305825 c 0.6960673,-0.253039 1.4295613,-0.403317 2.19202,-0.415426 1.968783,-0.01587 3.60955,0.927525 5.007531,2.129672 0.208362,0.179549 1.084548,1.041442 1.310028,1.295317 0.28561,0.321936 0.556972,0.656318 0.815441,1.000385 0.402107,0.535308 0.932431,1.387789 0.932431,1.387789 -0.527374,0.955789 -1.21166,1.941498 -2.032995,2.826719 l 1.180426,1.180427 C 18.355991,11.729304 19.288064,10.326227 20,8.888577 18.303047,5.715561 15.603675,2.635331 11.960489,1.686224 11.732085,1.626514 11.500925,1.578925 11.268346,1.540509 10.897555,1.479549 10.079055,1.440619 10.010159,1.441029 Z M 4.9823108,5.242215 7.0783567,7.33826 C 6.807362,7.821791 6.652422,8.379295 6.652422,8.972643 c 0,1.84769 1.4995373,3.347928 3.347228,3.347928 0.593127,0 1.150977,-0.15471 1.634383,-0.425934 h 7.33e-4 l 1.904095,1.904796 c -0.879793,0.504826 -1.842155,0.857873 -2.874356,0.98147 C 6.8404993,15.238545 3.8107972,12.221329 1.9013085,9.028687 l 0.00211,-0.0042 C 2.5890449,7.788917 3.649908,6.376702 4.9823332,5.242199 Z m 3.0978325,3.097832 2.5521027,2.552804 c -0.198991,0.06584 -0.411943,0.10158 -0.632596,0.10158 -1.1157127,0 -2.0210867,-0.906075 -2.0210867,-2.021788 0,-0.220888 0.03602,-0.433422 0.10158,-0.632596 z"
     inkscape:connector-curvature="0" /><g
     id="eye"
     transform="matrix(0.41755713,0,0,0.41755713,-4.164161,-3.6464001)" /><g
     id="toggle-off"
     transform="matrix(0.41755713,0,0,0.41755713,-4.164161,-3.6464001)" /><g
     id="shredder"
     transform="matrix(0.41755713,0,0,0.41755713,-4.164161,-3.6464001)" /><g
     id="spinner--loading--dots-"
     serif:id="spinner [loading, dots]"
     transform="matrix(0.41755713,0,0,0.41755713,-4.164161,-3.6464001)" /><g
     id="react"
     transform="matrix(0.41755713,0,0,0.41755713,-4.164161,-3.6464001)" /></svg>