<?xml version="1.0" encoding="UTF-8" standalone="no"?>
<svg
   xmlns:serif="http://www.serif.com/"
   xmlns:dc="http://purl.org/dc/elements/1.1/"
   xmlns:cc="http://creativecommons.org/ns#"
   xmlns:rdf="http://www.w3.org/1999/02/22-rdf-syntax-ns#"
   xmlns:svg="http://www.w3.org/2000/svg"
   xmlns="http://www.w3.org/2000/svg"
   xmlns:sodipodi="http://sodipodi.sourceforge.net/DTD/sodipodi-0.dtd"
   xmlns:inkscape="http://www.inkscape.org/namespaces/inkscape"
   width="30"
   height="26.901117"
   viewBox="0 0 30 26.901117"
   version="1.1"
   xml:space="preserve"
   style="clip-rule:evenodd;fill-rule:evenodd;stroke-linejoin:round;stroke-miterlimit:2"
   id="svg41"
   sodipodi:docname="eye_hide.svg"
   inkscape:version="0.92.5 (2060ec1f9f, 2020-04-08)"><metadata
     id="metadata36"><rdf:RDF><cc:Work
         rdf:about=""><dc:format>image/svg+xml</dc:format><dc:type
           rdf:resource="http://purl.org/dc/dcmitype/StillImage" /><dc:title></dc:title></cc:Work></rdf:RDF></metadata><defs
     id="defs45" /><sodipodi:namedview
     id="namedview43"
     pagecolor="#ffffff"
     bordercolor="#666666"
     borderopacity="1.0"
     inkscape:pageshadow="2"
     inkscape:pageopacity="0.0"
     inkscape:pagecheckerboard="0"
     showgrid="false"
     inkscape:zoom="18"
     inkscape:cx="16.72793"
     inkscape:cy="15"
     inkscape:window-width="1326"
     inkscape:window-height="740"
     inkscape:window-x="0"
     inkscape:window-y="0"
     inkscape:window-maximized="1"
     inkscape:current-layer="svg41"
     fit-margin-top="0"
     fit-margin-left="0"
     fit-margin-right="0"
     fit-margin-bottom="0"
     showborder="false" /><g
     id="Strike"
     transform="matrix(0.62633569,0,0,0.62633569,-6.2462415,-5.4696001)" /><g
     id="H1"
     transform="matrix(0.62633569,0,0,0.62633569,-6.2462415,-5.4696001)" /><g
     id="H2"
     transform="matrix(0.62633569,0,0,0.62633569,-6.2462415,-5.4696001)" /><g
     id="H3"
     transform="matrix(0.62633569,0,0,0.62633569,-6.2462415,-5.4696001)" /><g
     id="list-ul"
     transform="matrix(0.62633569,0,0,0.62633569,-6.2462415,-5.4696001)" /><g
     id="hamburger-1"
     transform="matrix(0.62633569,0,0,0.62633569,-6.2462415,-5.4696001)" /><g
     id="hamburger-2"
     transform="matrix(0.62633569,0,0,0.62633569,-6.2462415,-5.4696001)" /><g
     id="list-ol"
     transform="matrix(0.62633569,0,0,0.62633569,-6.2462415,-5.4696001)" /><g
     id="list-task"
     transform="matrix(0.62633569,0,0,0.62633569,-6.2462415,-5.4696001)" /><g
     id="trash"
     transform="matrix(0.62633569,0,0,0.62633569,-6.2462415,-5.4696001)" /><g
     id="vertical-menu"
     transform="matrix(0.62633569,0,0,0.62633569,-6.2462415,-5.4696001)" /><g
     id="horizontal-menu"
     transform="matrix(0.62633569,0,0,0.62633569,-6.2462415,-5.4696001)" /><g
     id="sidebar-2"
     transform="matrix(0.62633569,0,0,0.62633569,-6.2462415,-5.4696001)" /><g
     id="Pen"
     transform="matrix(0.62633569,0,0,0.62633569,-6.2462415,-5.4696001)" /><g
     id="Pen1"
     serif:id="Pen"
     transform="matrix(0.62633569,0,0,0.62633569,-6.2462415,-5.4696001)" /><g
     id="clock"
     transform="matrix(0.62633569,0,0,0.62633569,-6.2462415,-5.4696001)" /><g
     id="external-link"
     transform="matrix(0.62633569,0,0,0.62633569,-6.2462415,-5.4696001)" /><g
     id="hr"
     transform="matrix(0.62633569,0,0,0.62633569,-6.2462415,-5.4696001)" /><g
     id="info"
     transform="matrix(0.62633569,0,0,0.62633569,-6.2462415,-5.4696001)" /><g
     id="warning"
     transform="matrix(0.62633569,0,0,0.62633569,-6.2462415,-5.4696001)" /><g
     id="plus-circle"
     transform="matrix(0.62633569,0,0,0.62633569,-6.2462415,-5.4696001)" /><g
     id="minus-circle"
     transform="matrix(0.62633569,0,0,0.62633569,-6.2462415,-5.4696001)" /><g
     id="vue"
     transform="matrix(0.62633569,0,0,0.62633569,-6.2462415,-5.4696001)" /><g
     id="cog"
     transform="matrix(0.62633569,0,0,0.62633569,-6.2462415,-5.4696001)" /><g
     id="logo"
     transform="matrix(0.62633569,0,0,0.62633569,-6.2462415,-5.4696001)" /><path
     id="path1832"
     style="fill:#b0a8b9;fill-opacity:1;stroke-width:0.62633336"
     d="m 14.907208,8.4392089 c 0.03069,-6.45e-4 0.06201,-0.0012 0.0927,-0.0012 2.771536,0 5.021334,2.2504241 5.021334,5.0213331 0,0.03132 0,0.06201 -6.46e-4,0.0927 z M 3.4887386,0 1.5489158,1.9387719 5.6471328,6.0369889 C 3.3008795,8.0970069 1.3942233,10.780757 0,13.586115 c 2.9694575,5.549335 7.680065,10.274466 13.441101,11.053627 3.194626,0.432129 6.142308,-0.442535 8.714491,-2.093243 h 0.0011 l 4.353544,4.354618 1.939822,-1.939823 z M 15.015238,2.1615468 c -1.861471,0.030064 -3.604309,0.4517873 -5.2152445,1.169568 l 1.9587375,1.9587376 c 1.044101,-0.3795594 2.144342,-0.6049753 3.28803,-0.6231392 2.953174,-0.0238 5.414325,1.3912873 7.511297,3.1945077 0.312542,0.269324 1.626822,1.562163 1.965042,1.942975 0.428415,0.4829051 0.835458,0.9844771 1.223161,1.5005781 0.603161,0.802962 1.398647,2.081684 1.398647,2.081684 -0.791061,1.433683 -1.81749,2.912246 -3.049493,4.240078 l 1.770639,1.77064 C 27.533986,17.593956 28.932096,15.48934 30,13.332866 27.454571,8.5733409 23.405512,3.9529966 17.940734,2.5293355 17.598128,2.4397695 17.251388,2.3683868 16.902519,2.3107639 16.346333,2.2193189 15.118582,2.1609227 15.015238,2.1615468 Z M 7.4734662,7.8633219 10.617535,11.00739 c -0.406492,0.725297 -0.638902,1.561553 -0.638902,2.451575 0,2.771535 2.249306,5.021892 5.020842,5.021892 0.889691,0 1.726465,-0.232065 2.451574,-0.638902 h 0.0011 l 2.856142,2.857194 c -1.319689,0.757239 -2.763232,1.28681 -4.311534,1.472205 -5.736008,0.686464 -10.2805612,-3.83936 -13.1447943,-8.628323 l 0.00316,-0.0063 C 3.8835623,11.683375 5.4748569,9.5650529 7.4734947,7.8632989 Z m 4.6467488,4.6467481 3.828154,3.829207 c -0.298487,0.09876 -0.617915,0.152369 -0.948894,0.152369 -1.673569,0 -3.03163,-1.359112 -3.03163,-3.032681 0,-0.331332 0.05403,-0.650133 0.15237,-0.948895 z"
     inkscape:connector-curvature="0" /><g
     id="eye"
     transform="matrix(0.62633569,0,0,0.62633569,-6.2462415,-5.4696001)" /><g
     id="toggle-off"
     transform="matrix(0.62633569,0,0,0.62633569,-6.2462415,-5.4696001)" /><g
     id="shredder"
     transform="matrix(0.62633569,0,0,0.62633569,-6.2462415,-5.4696001)" /><g
     id="spinner--loading--dots-"
     serif:id="spinner [loading, dots]"
     transform="matrix(0.62633569,0,0,0.62633569,-6.2462415,-5.4696001)" /><g
     id="react"
     transform="matrix(0.62633569,0,0,0.62633569,-6.2462415,-5.4696001)" /></svg>