<?xml version="1.0" encoding="UTF-8" standalone="no"?>
<svg
   xmlns:serif="http://www.serif.com/"
   xmlns:dc="http://purl.org/dc/elements/1.1/"
   xmlns:cc="http://creativecommons.org/ns#"
   xmlns:rdf="http://www.w3.org/1999/02/22-rdf-syntax-ns#"
   xmlns:svg="http://www.w3.org/2000/svg"
   xmlns="http://www.w3.org/2000/svg"
   xmlns:sodipodi="http://sodipodi.sourceforge.net/DTD/sodipodi-0.dtd"
   xmlns:inkscape="http://www.inkscape.org/namespaces/inkscape"
   width="20"
   height="15.031476"
   viewBox="0 0 20 15.031476"
   version="1.1"
   xml:space="preserve"
   style="clip-rule:evenodd;fill-rule:evenodd;stroke-linejoin:round;stroke-miterlimit:2"
   id="svg41"
   sodipodi:docname="eye_show.svg"
   inkscape:version="0.92.5 (2060ec1f9f, 2020-04-08)"><metadata
     id="metadata40"><rdf:RDF><cc:Work
         rdf:about=""><dc:format>image/svg+xml</dc:format><dc:type
           rdf:resource="http://purl.org/dc/dcmitype/StillImage" /><dc:title></dc:title></cc:Work></rdf:RDF></metadata><defs
     id="defs45" /><sodipodi:namedview
     id="namedview43"
     pagecolor="#ffffff"
     bordercolor="#666666"
     borderopacity="1.0"
     inkscape:pageshadow="2"
     inkscape:pageopacity="0.0"
     inkscape:pagecheckerboard="0"
     showgrid="false"
     inkscape:zoom="15.000195"
     inkscape:cx="10.782942"
     inkscape:cy="18.00032"
     inkscape:window-width="1326"
     inkscape:window-height="740"
     inkscape:window-x="0"
     inkscape:window-y="0"
     inkscape:window-maximized="1"
     inkscape:current-layer="svg41"
     fit-margin-top="0"
     fit-margin-left="0"
     fit-margin-right="0"
     fit-margin-bottom="0"
     showborder="false" /><g
     id="Strike"
     style="fill:#000000;fill-opacity:1;stroke:none"
     transform="matrix(0.66666669,0,0,0.66666669,-5.4010418,-18.16591)" /><g
     id="H1"
     style="fill:#000000;fill-opacity:1;stroke:none"
     transform="matrix(0.66666669,0,0,0.66666669,-5.4010418,-18.16591)" /><g
     id="H2"
     style="fill:#000000;fill-opacity:1;stroke:none"
     transform="matrix(0.66666669,0,0,0.66666669,-5.4010418,-18.16591)" /><g
     id="H3"
     style="fill:#000000;fill-opacity:1;stroke:none"
     transform="matrix(0.66666669,0,0,0.66666669,-5.4010418,-18.16591)" /><g
     id="list-ul"
     style="fill:#000000;fill-opacity:1;stroke:none"
     transform="matrix(0.66666669,0,0,0.66666669,-5.4010418,-18.16591)" /><g
     id="hamburger-1"
     style="fill:#000000;fill-opacity:1;stroke:none"
     transform="matrix(0.66666669,0,0,0.66666669,-5.4010418,-18.16591)" /><g
     id="hamburger-2"
     style="fill:#000000;fill-opacity:1;stroke:none"
     transform="matrix(0.66666669,0,0,0.66666669,-5.4010418,-18.16591)" /><g
     id="list-ol"
     style="fill:#000000;fill-opacity:1;stroke:none"
     transform="matrix(0.66666669,0,0,0.66666669,-5.4010418,-18.16591)" /><g
     id="list-task"
     style="fill:#000000;fill-opacity:1;stroke:none"
     transform="matrix(0.66666669,0,0,0.66666669,-5.4010418,-18.16591)" /><g
     id="trash"
     style="fill:#000000;fill-opacity:1;stroke:none"
     transform="matrix(0.66666669,0,0,0.66666669,-5.4010418,-18.16591)" /><g
     id="vertical-menu"
     style="fill:#000000;fill-opacity:1;stroke:none"
     transform="matrix(0.66666669,0,0,0.66666669,-5.4010418,-18.16591)" /><g
     id="horizontal-menu"
     style="fill:#000000;fill-opacity:1;stroke:none"
     transform="matrix(0.66666669,0,0,0.66666669,-5.4010418,-18.16591)" /><g
     id="sidebar-2"
     style="fill:#000000;fill-opacity:1;stroke:none"
     transform="matrix(0.66666669,0,0,0.66666669,-5.4010418,-18.16591)" /><g
     id="Pen"
     style="fill:#000000;fill-opacity:1;stroke:none"
     transform="matrix(0.66666669,0,0,0.66666669,-5.4010418,-18.16591)" /><g
     id="Pen1"
     serif:id="Pen"
     style="fill:#000000;fill-opacity:1;stroke:none"
     transform="matrix(0.66666669,0,0,0.66666669,-5.4010418,-18.16591)" /><g
     id="clock"
     style="fill:#000000;fill-opacity:1;stroke:none"
     transform="matrix(0.66666669,0,0,0.66666669,-5.4010418,-18.16591)" /><g
     id="external-link"
     style="fill:#000000;fill-opacity:1;stroke:none"
     transform="matrix(0.66666669,0,0,0.66666669,-5.4010418,-18.16591)" /><g
     id="hr"
     style="fill:#000000;fill-opacity:1;stroke:none"
     transform="matrix(0.66666669,0,0,0.66666669,-5.4010418,-18.16591)" /><g
     id="info"
     style="fill:#000000;fill-opacity:1;stroke:none"
     transform="matrix(0.66666669,0,0,0.66666669,-5.4010418,-18.16591)" /><g
     id="warning"
     style="fill:#000000;fill-opacity:1;stroke:none"
     transform="matrix(0.66666669,0,0,0.66666669,-5.4010418,-18.16591)" /><g
     id="plus-circle"
     style="fill:#000000;fill-opacity:1;stroke:none"
     transform="matrix(0.66666669,0,0,0.66666669,-5.4010418,-18.16591)" /><g
     id="minus-circle"
     style="fill:#000000;fill-opacity:1;stroke:none"
     transform="matrix(0.66666669,0,0,0.66666669,-5.4010418,-18.16591)" /><g
     id="vue"
     style="fill:#000000;fill-opacity:1;stroke:none"
     transform="matrix(0.66666669,0,0,0.66666669,-5.4010418,-18.16591)" /><g
     id="cog"
     style="fill:#000000;fill-opacity:1;stroke:none"
     transform="matrix(0.66666669,0,0,0.66666669,-5.4010418,-18.16591)" /><g
     id="logo"
     style="fill:#000000;fill-opacity:1;stroke:none"
     transform="matrix(0.66666669,0,0,0.66666669,-5.4010418,-18.16591)" /><g
     id="eye"
     style="fill:#000000;fill-opacity:1;stroke:none"
     transform="matrix(0.66666669,0,0,0.66666669,-5.4010418,-18.16591)" /><g
     id="toggle-off"
     style="fill:#000000;fill-opacity:1;stroke:none"
     transform="matrix(0.66666669,0,0,0.66666669,-5.4010418,-18.16591)" /><g
     id="shredder"
     style="fill:#000000;fill-opacity:1;stroke:none"
     transform="matrix(0.66666669,0,0,0.66666669,-5.4010418,-18.16591)" /><g
     id="spinner--loading--dots-"
     serif:id="spinner [loading, dots]"
     style="fill:#000000;fill-opacity:1;stroke:none"
     transform="matrix(0.66666669,0,0,0.66666669,-5.4010418,-18.16591)" /><g
     id="react"
     style="fill:#000000;fill-opacity:1;stroke:none"
     transform="matrix(0.66666669,0,0,0.66666669,-5.4010418,-18.16591)" /><path
     id="path4354"
     style="fill:#b0a8b9;fill-opacity:1;stroke:none;stroke-width:0.41755018px;stroke-linecap:butt;stroke-linejoin:miter;stroke-opacity:1"
     d="m 10,4.1836597 c -0.727451,0.04337 -1.1007924,0.181805 -1.7754031,0.567608 -0.4753313,0.271836 -0.8903753,0.737974 -1.145816,1.145816 -0.2554413,0.407841 -0.4265217,1.040978 -0.4265217,1.634317 0,1.84766 1.5000817,3.3477423 3.3477408,3.3477423 0.593339,0 1.15161,-0.155114 1.635134,-0.426522 0,0 0.754005,-0.35302 1.257544,-1.1735443 0.503537,-0.820524 0.455064,-1.747676 0.455064,-1.747676 C 13.321642,5.9451287 11.84766,4.1836597 10,4.1836597 Z m -0.1288523,1.326048 c 0.6673333,-0.01663 1.4538003,0.191395 1.8479853,0.766597 0.124865,0.182204 0.216318,0.378488 0.274833,0.579839 0.242594,0.888288 -0.04867,2.091531 -1.361116,2.59501 -0.199172,0.06597 -0.411966,0.101941 -0.63285,0.101941 -1.1156937,0 -2.0226724,-1.238173 -2.0208764,-2.021694 0.0018,-0.783521 0.386056,-1.403196 0.9305167,-1.77948 0.2041727,-0.141108 0.5611073,-0.232232 0.9615074,-0.242213 z M 10.010602,3.4014042e-6 C 8.7696436,0.0200434 7.6071316,0.3011354 6.5331926,0.7796474 c 0,6e-7 -1.0347594,0.4895067 -1.5119888,0.8024793 -0.447732,0.293628 -1.2559127,1.001468 -1.2559127,1.001468 C 2.2011484,3.9569177 0.9294665,5.7460087 0,7.6162157 c 1.9796057,3.6994953 5.1203918,6.8496763 8.9610176,7.3691083 2.1299234,0.28811 4.9531954,-0.845037 5.8106344,-1.395367 0.85744,-0.550332 1.915898,-1.498921 2.471865,-2.099984 C 17.799485,10.888909 19.288077,8.8850267 20,7.4474017 18.303077,4.2744377 15.603654,1.1945687 11.960528,0.2454774 11.732128,0.185764 11.500721,0.1370967 11.268146,0.098682 10.897361,0.037722 10.079498,-4.145986e-4 10.010602,3.4014042e-6 Z M 10.030992,1.6702041 c 1.968749,-0.015867 3.610197,0.9272156 5.008156,2.1293416 0.208357,0.179547 1.08426,1.041188 1.309737,1.295059 0.285604,0.321931 0.557064,0.656591 0.815527,1.000652 0.402101,0.5353 0.932148,1.388028 0.932148,1.388028 -0.527365,0.955773 -1.356716,2.111499 -2.03311,2.8258043 -0.676393,0.714304 -1.352562,1.397138 -2.524058,2.048605 -1.171496,0.651467 -1.842551,0.857485 -2.874735,0.98108 C 6.8407326,13.796409 3.8104535,10.779446 1.9009961,7.5868567 l 0.00247,-0.0041 C 2.5890771,6.3472597 3.7536111,4.8651117 4.9820765,3.8003737 5.8214385,3.0728787 6.8017182,2.4807941 7.8396856,2.0853188 8.5345243,1.8205861 9.2685443,1.6823381 10.030991,1.6702294 Z"
     inkscape:connector-curvature="0" /></svg>