<?xml version="1.0" encoding="UTF-8" standalone="no"?>
<svg
   height="65"
   version="1.1"
   viewBox="0 0 64.824218 65"
   width="64.824219"
   xml:space="preserve"
   id="svg12"
   sodipodi:docname="facebook.svg"
   inkscape:version="1.1.1 (3bf5ae0d25, 2021-09-20)"
   xmlns:inkscape="http://www.inkscape.org/namespaces/inkscape"
   xmlns:sodipodi="http://sodipodi.sourceforge.net/DTD/sodipodi-0.dtd"
   xmlns="http://www.w3.org/2000/svg"
   xmlns:svg="http://www.w3.org/2000/svg"><defs
     id="defs16" /><sodipodi:namedview
     id="namedview14"
     pagecolor="#ffffff"
     bordercolor="#666666"
     borderopacity="1.0"
     inkscape:pageshadow="2"
     inkscape:pageopacity="0.0"
     inkscape:pagecheckerboard="0"
     showgrid="false"
     showborder="false"
     fit-margin-top="0"
     fit-margin-left="0"
     fit-margin-right="0"
     fit-margin-bottom="0"
     inkscape:zoom="3.25"
     inkscape:cx="10.153846"
     inkscape:cy="23.538462"
     inkscape:window-width="1920"
     inkscape:window-height="1017"
     inkscape:window-x="-8"
     inkscape:window-y="32"
     inkscape:window-maximized="1"
     inkscape:current-layer="svg12" /><g
     id="_x38_3-facebook"
     transform="matrix(0.13584117,0,0,0.13584117,-2.3632288,-2.2753396)"><g
       id="g8"><g
         id="g6"><path
           d="M 434.949,16.75 H 77.045 c -32.893,0 -59.648,26.831 -59.648,59.812 v 358.871 c 0,32.985 26.756,59.816 59.648,59.816 h 357.904 c 32.898,0 59.654,-26.831 59.654,-59.816 V 76.563 C 494.604,43.581 467.848,16.75 434.949,16.75 Z m 0,0"
           style="fill:#1b80e4"
           id="path2" /><path
           d="m 420.039,256 h -74.564 v -59.813 c 0,-16.51 13.365,-14.951 29.824,-14.951 h 29.83 v -74.768 h -59.654 c -49.42,0 -89.473,40.162 -89.473,89.719 V 256 h -59.65 v 74.766 h 59.65 V 495.25 h 89.473 V 330.766 h 44.738 z m 0,0"
           style="fill:#fcfcfc"
           id="path4" /></g></g></g><g
     id="Layer_1"
     transform="matrix(0.13584117,0,0,0.13584117,-2.3632288,-2.2753396)" /></svg>
