<?xml version="1.0" encoding="UTF-8" standalone="no"?>
<svg
   width="45.004715"
   height="43.148693"
   viewBox="0 0 45.004715 43.148693"
   fill="none"
   version="1.1"
   id="svg4"
   sodipodi:docname="filkledStar.svg"
   inkscape:version="1.1.1 (3bf5ae0d25, 2021-09-20)"
   xmlns:inkscape="http://www.inkscape.org/namespaces/inkscape"
   xmlns:sodipodi="http://sodipodi.sourceforge.net/DTD/sodipodi-0.dtd"
   xmlns="http://www.w3.org/2000/svg"
   xmlns:svg="http://www.w3.org/2000/svg">
  <defs
     id="defs8" />
  <sodipodi:namedview
     id="namedview6"
     pagecolor="#ffffff"
     bordercolor="#666666"
     borderopacity="1.0"
     inkscape:pageshadow="2"
     inkscape:pageopacity="0.0"
     inkscape:pagecheckerboard="0"
     showgrid="false"
     fit-margin-top="0"
     fit-margin-left="0"
     fit-margin-right="0"
     fit-margin-bottom="0"
     inkscape:zoom="13.073619"
     inkscape:cx="14.647819"
     inkscape:cy="25.279917"
     inkscape:window-width="1920"
     inkscape:window-height="1017"
     inkscape:window-x="-8"
     inkscape:window-y="32"
     inkscape:window-maximized="1"
     inkscape:current-layer="svg4" />
  <path
     d="m 19.2736,2.007779 c 0.2971,-0.60264 0.7571,-1.11008 1.3277,-1.4649 C 21.1719,0.188049 21.8304,0 22.5023,0 c 0.6719,0 1.3305,0.188049 1.9011,0.542879 0.5706,0.35482 1.0305,0.86226 1.3277,1.4649 l 5.004,10.14298 11.187,1.62 c 0.665,0.0966 1.2897,0.3774 1.8034,0.8106 0.5138,0.4332 0.896,1.0016 1.1034,1.6408 0.2075,0.6391 0.2318,1.3236 0.0704,1.976 -0.1614,0.6523 -0.5022,1.2464 -0.9837,1.7151 l -8.0955,7.8885 1.9125,11.142 c 0.1127,0.6615 0.0383,1.3414 -0.2148,1.9628 -0.2531,0.6215 -0.6748,1.1598 -1.2177,1.5543 -0.5428,0.3945 -1.1851,0.6294 -1.8543,0.6783 -0.6693,0.0488 -1.3389,-0.0904 -1.9332,-0.4019 l -10.0125,-5.2605 -10.008,5.2605 c -0.5944,0.3115 -1.264,0.4507 -1.9332,0.4019 -0.6693,-0.0489 -1.31156,-0.2838 -1.85439,-0.6783 -0.54283,-0.3945 -0.9646,-0.9328 -1.21771,-1.5543 -0.25311,-0.6214 -0.32749,-1.3013 -0.21474,-1.9628 l 1.908,-11.142 -8.0955,-7.893 c -0.48034,-0.4691 -0.819901,-1.0633 -0.980314,-1.7153 -0.160413,-0.652 -0.135284,-1.3359 0.072548,-1.9744 0.207833,-0.6384 0.590086,-1.2061 1.103566,-1.6387 0.51348,-0.4327 1.13773,-0.7131 1.8022,-0.8096 l 11.18704,-1.6245 4.9995,-10.13848 z"
     id="path2"
     style="fill:#ff8066;fill-opacity:1" />
</svg>
