<?xml version="1.0" encoding="UTF-8" standalone="no"?>
<svg
   width="15.001544"
   height="14.38291"
   viewBox="0 0 15.001544 14.38291"
   fill="none"
   version="1.1"
   id="svg11"
   sodipodi:docname="goldStar.svg"
   inkscape:version="1.1.1 (3bf5ae0d25, 2021-09-20)"
   xmlns:inkscape="http://www.inkscape.org/namespaces/inkscape"
   xmlns:sodipodi="http://sodipodi.sourceforge.net/DTD/sodipodi-0.dtd"
   xmlns="http://www.w3.org/2000/svg"
   xmlns:svg="http://www.w3.org/2000/svg">
  <defs
     id="defs15" />
  <sodipodi:namedview
     id="namedview13"
     pagecolor="#ffffff"
     bordercolor="#666666"
     borderopacity="1.0"
     inkscape:pageshadow="2"
     inkscape:pageopacity="0.0"
     inkscape:pagecheckerboard="0"
     showgrid="false"
     fit-margin-top="0"
     fit-margin-left="0"
     fit-margin-right="0"
     fit-margin-bottom="0"
     showborder="false"
     inkscape:zoom="26"
     inkscape:cx="2.8076923"
     inkscape:cy="6.9423077"
     inkscape:window-width="1920"
     inkscape:window-height="1017"
     inkscape:window-x="-8"
     inkscape:window-y="32"
     inkscape:window-maximized="1"
     inkscape:current-layer="svg11" />
  <path
     d="m 6.4245198,0.66926 c 0.09906,-0.20088 0.25237,-0.370025 0.44257,-0.488301 C 7.0572898,0.062684 7.2767898,0 7.5007698,0 c 0.22398,0 0.44348,0.062684 0.63368,0.180959 0.19021,0.118276 0.34351,0.287421 0.44257,0.488301 l 1.6679802,3.381 3.729,0.54 c 0.2217,0.03219 0.4299,0.12578 0.6012,0.27019 0.1712,0.14441 0.2986,0.33386 0.3678,0.54692 0.0691,0.21307 0.0772,0.44123 0.0234,0.65867 -0.0538,0.21745 -0.1674,0.41549 -0.3279,0.57172 l -2.6985,2.6295 0.6375,3.71396 c 0.0376,0.2205 0.0128,0.4472 -0.0716,0.6543 -0.0843,0.2072 -0.2249,0.3866 -0.4059,0.5181 -0.1809,0.1315 -0.395,0.2098 -0.6181,0.2261 -0.2231,0.0163 -0.4463,-0.0301 -0.6444,-0.134 l -3.3374802,-1.7535 -3.336,1.7535 c -0.19812,0.1039 -0.42131,0.1503 -0.64439,0.134 -0.22309,-0.0163 -0.43718,-0.0946 -0.61813,-0.2261 -0.18094,-0.1315 -0.32153,-0.3109 -0.4059,-0.5181 -0.08437,-0.2071 -0.10916,-0.4338 -0.07158,-0.6543 l 0.636,-3.71396 -2.69849797,-2.631 c -0.160115,-0.15639 -0.273302,-0.35444 -0.326773,-0.57177 -0.053471,-0.21734 -0.045095,-0.4453 0.024182,-0.65812 0.069278,-0.21283 0.196695,-0.40204 0.367856,-0.54625 0.171163,-0.14422 0.379243,-0.23769 0.60073297,-0.26986 l 3.729,-0.5415 1.6665,-3.3795 z"
     fill="#ffc266"
     id="path2" />
  <mask
     id="mask0_112_1805"
     maskUnits="userSpaceOnUse"
     x="0"
     y="0"
     width="16"
     height="16">
    <path
       d="M 6.92452,1.31904 C 7.02358,1.11816 7.17689,0.949015 7.36709,0.830739 7.55729,0.712464 7.77679,0.64978 8.00077,0.64978 c 0.22398,0 0.44348,0.062684 0.63368,0.180959 0.19021,0.118276 0.34351,0.287421 0.44257,0.488301 l 1.66798,3.381 3.729,0.54 c 0.2217,0.03219 0.4299,0.12578 0.6012,0.27019 0.1712,0.14441 0.2986,0.33386 0.3678,0.54692 0.0691,0.21307 0.0772,0.44123 0.0234,0.65867 -0.0538,0.21745 -0.1674,0.41549 -0.3279,0.57172 L 12.44,9.91704 13.0775,13.631 c 0.0376,0.2205 0.0128,0.4472 -0.0716,0.6543 -0.0843,0.2072 -0.2249,0.3866 -0.4059,0.5181 -0.1809,0.1315 -0.395,0.2098 -0.6181,0.2261 -0.2231,0.0163 -0.4463,-0.0301 -0.6444,-0.134 L 8.00002,13.142 4.66402,14.8955 C 4.4659,14.9994 4.24271,15.0458 4.01963,15.0295 3.79654,15.0132 3.58245,14.9349 3.4015,14.8034 3.22056,14.6719 3.07997,14.4925 2.9956,14.2853 2.91123,14.0782 2.88644,13.8515 2.92402,13.631 l 0.636,-3.71396 -2.698498,-2.631 C 0.701407,7.12965 0.58822,6.9316 0.534749,6.71427 0.481278,6.49693 0.489654,6.26897 0.558931,6.05615 0.628209,5.84332 0.755626,5.65411 0.926787,5.5099 1.09795,5.36568 1.30603,5.27221 1.52752,5.24004 l 3.729,-0.5415 1.6665,-3.3795 z"
       fill="#ffc266"
       id="path4" />
  </mask>
  <g
     mask="url(#mask0_112_1805)"
     id="g9"
     transform="translate(-0.50000017,-0.64978)">
    <rect
       opacity="0.4"
       x="10.5759"
       y="2.3835399"
       width="2.860817"
       height="13.908451"
       transform="rotate(45,10.5759,2.38354)"
       fill="#ffffff"
       id="rect7" />
  </g>
</svg>
