<?xml version="1.0" encoding="UTF-8" standalone="no"?>
<svg
   enable-background="new 0 0 64 64"
   height="65"
   id="Layer_1"
   version="1.1"
   viewBox="0 0 63.622436 65"
   width="63.622437"
   xml:space="preserve"
   sodipodi:docname="Google.svg"
   inkscape:version="1.1.1 (3bf5ae0d25, 2021-09-20)"
   xmlns:inkscape="http://www.inkscape.org/namespaces/inkscape"
   xmlns:sodipodi="http://sodipodi.sourceforge.net/DTD/sodipodi-0.dtd"
   xmlns="http://www.w3.org/2000/svg"
   xmlns:svg="http://www.w3.org/2000/svg"><defs
     id="defs27" /><sodipodi:namedview
     id="namedview25"
     pagecolor="#ffffff"
     bordercolor="#666666"
     borderopacity="1.0"
     inkscape:pageshadow="2"
     inkscape:pageopacity="0.0"
     inkscape:pagecheckerboard="0"
     showgrid="false"
     showborder="false"
     fit-margin-top="0"
     fit-margin-left="0"
     fit-margin-right="0"
     fit-margin-bottom="0"
     inkscape:zoom="6.5"
     inkscape:cx="10.923077"
     inkscape:cy="35"
     inkscape:window-width="1920"
     inkscape:window-height="1017"
     inkscape:window-x="-8"
     inkscape:window-y="32"
     inkscape:window-maximized="1"
     inkscape:current-layer="Layer_1" /><g
     id="g22"
     transform="matrix(1.0428198,0,0,1.0428198,-1.5642297,-0.87075453)"><path
       d="m 32.709,0.835 c -9.453,0 -17.881,4.146 -23.591,10.719 -1.74,2.005 -3.231,4.232 -4.417,6.641 l 10.501,8.021 c 1.217,-3.693 3.567,-6.862 6.64,-9.104 3.043,-2.217 6.795,-3.527 10.866,-3.527 4.398,0 8.37,1.559 11.491,4.109 L 53.278,8.628 C 47.747,3.81 40.654,0.835 32.709,0.835 Z"
       fill="#ff7976"
       id="path2" /><path
       d="m 4.702,18.194 10.501,8.021 c 1.217,-3.693 3.567,-6.862 6.64,-9.104 3.043,-2.217 6.795,-3.527 10.866,-3.527 4.398,0 8.37,1.559 11.491,4.109 L 53.279,8.627 C 47.746,3.811 40.654,0.835 32.709,0.835"
       fill="#e3443a"
       id="path4" /><path
       d="m 14.268,32 c 0,-0.287 0.021,-0.57 0.034,-0.854 0.082,-1.716 0.387,-3.37 0.901,-4.931 L 4.702,18.194 C 2.771,22.111 1.651,26.497 1.525,31.146 1.517,31.431 1.5,31.714 1.5,32 c 0,0.287 0.017,0.571 0.024,0.856 0.126,4.643 1.246,9.027 3.172,12.94 L 15.194,37.76 C 14.685,36.207 14.382,34.56 14.302,32.855 14.289,32.571 14.268,32.288 14.268,32 Z"
       fill="#f4d72c"
       id="path6" /><path
       d="M 4.697,45.796 15.195,37.76 c -0.509,-1.553 -0.812,-3.2 -0.892,-4.905 -0.013,-0.285 -0.034,-0.568 -0.034,-0.856 0,-0.287 0.021,-0.57 0.034,-0.854 0.082,-1.716 0.387,-3.37 0.901,-4.931 L 4.702,18.194"
       fill="#f7b92b"
       id="path8" /><path
       d="M 1.5,32"
       fill="#f7b92b"
       id="path10" /><path
       d="m 43.074,47.691 c -2.813,1.772 -6.356,2.725 -10.365,2.725 -2.346,0 -4.581,-0.446 -6.641,-1.239 -1.517,-0.584 -2.933,-1.365 -4.226,-2.305 -3.072,-2.237 -5.423,-5.396 -6.64,-9.086 l -10.501,8.02 c 1.184,2.405 2.672,4.629 4.409,6.631 5.71,6.58 14.144,10.729 23.599,10.729 2.86,0 5.671,-0.382 8.355,-1.126 4.462,-1.238 8.574,-3.479 11.979,-6.641 z"
       fill="#59c96e"
       id="path12" /><path
       d="m 4.702,45.806 c 1.184,2.405 2.672,4.629 4.409,6.631 5.71,6.58 14.144,10.729 23.599,10.729 2.86,0 5.671,-0.382 8.355,-1.126 4.462,-1.238 8.574,-3.479 11.979,-6.641 l -9.97,-7.707 c -2.813,1.772 -6.356,2.725 -10.365,2.725 -2.346,0 -4.581,-0.446 -6.641,-1.239 -1.517,-0.584 -2.933,-1.365 -4.226,-2.305"
       fill="#40a557"
       id="path14" /><path
       d="M 61.791,26 H 59.92 33 v 5.146 1.71 V 38 h 16.449 c -0.837,4 -3.115,7.636 -6.375,9.691 l 9.97,7.707 C 55.778,52.86 58.049,49.675 59.683,45.991 61.475,41.955 62.5,37.121 62.5,31.809 62.5,29.969 62.217,28 61.791,26 Z"
       fill="#0faef4"
       id="path16" /><path
       d="M 53.044,55.398 C 55.778,52.86 58.069,49.639 59.703,45.955 61.495,41.919 62.51,37.103 62.51,31.792 62.51,29.951 62.217,28 61.791,26 H 60"
       fill="#4087ed"
       id="path18" /><polyline
       fill="#4087ed"
       points="33,31 33,32.856 33,38 49,38  "
       id="polyline20" /></g></svg>
