<?xml version="1.0" encoding="UTF-8" standalone="no"?>
<svg
   width="114.00011"
   height="127.00017"
   viewBox="0 0 114.00011 127.00017"
   fill="none"
   version="1.1"
   id="svg4"
   sodipodi:docname="logo.svg"
   inkscape:version="1.1.1 (3bf5ae0d25, 2021-09-20)"
   inkscape:label="Бэкэнд"
   xmlns:inkscape="http://www.inkscape.org/namespaces/inkscape"
   xmlns:sodipodi="http://sodipodi.sourceforge.net/DTD/sodipodi-0.dtd"
   xmlns="http://www.w3.org/2000/svg"
   xmlns:svg="http://www.w3.org/2000/svg">
  <defs
     id="defs8" />
  <sodipodi:namedview
     id="namedview6"
     pagecolor="#ffffff"
     bordercolor="#666666"
     borderopacity="1.0"
     inkscape:pageshadow="2"
     inkscape:pageopacity="0.0"
     inkscape:pagecheckerboard="0"
     showgrid="false"
     inkscape:zoom="6.3700703"
     inkscape:cx="53.296115"
     inkscape:cy="63.500084"
     inkscape:window-width="1920"
     inkscape:window-height="1017"
     inkscape:window-x="-8"
     inkscape:window-y="32"
     inkscape:window-maximized="1"
     inkscape:current-layer="svg4"
     fit-margin-top="0"
     fit-margin-left="0"
     fit-margin-right="0"
     fit-margin-bottom="0"
     showborder="false" />
  <path
     d="m 107.128,41.3967 c -1.006,0.2512 -0.275,-0.1335 -22.9905,12.1132 -11.0058,5.9336 -20.3749,11.1326 -20.8201,11.5529 -1.7888,1.6897 -1.6906,-0.0719 -1.6906,30.3273 v 27.2969 l 0.554,1.028 c 1.1928,2.213 3.6556,3.54 5.9845,3.223 1.3455,-0.183 0.6935,0.16 14.2121,-7.472 5.7752,-3.26 14.6067,-8.244 19.6256,-11.075 5.019,-2.831 9.561,-5.509 10.093,-5.949 0.532,-0.441 1.176,-1.259 1.432,-1.817 0.443,-0.9705 0.465,-2.2341 0.47,-28.0107 0.006,-29.1783 0.072,-27.7192 -1.338,-29.3785 -1.186,-1.3971 -3.81,-2.2694 -5.532,-1.8391 z"
     id="frontend"
     style="fill:#ff8066;fill-opacity:1"
     inkscape:label="frontend"
     onclick="console.log(&quot;Хачатур Карапетян&quot;)" />
  <path
     d="M 4.17837,41.5166 C 2.66733,41.927 1.30804,43.0104 0.572267,44.3916 L 0,45.4659 0.0055,72.5371 c 0.0052502,25.6486 0.029501,27.1239 0.460764,28.0659 0.250507,0.547 0.838776,1.329 1.307536,1.738 1.04153,0.907 42.1482,24.133 43.287,24.457 2.5628,0.73 5.4059,-0.567 6.7617,-3.083 l 0.554,-1.028 V 95.266 67.8453 L 51.8148,66.7138 C 51.5055,66.0912 50.943,65.2911 50.5647,64.9358 50.006,64.4109 13.6567,44.6162 8.75026,42.1647 7.00446,41.2925 5.68992,41.1061 4.17837,41.5166 Z"
     id="path853"
     style="fill:#c34a36;fill-opacity:1"
     inkscape:label="design"
     onclick="console.log(&quot;Анастасия Карапетян&quot;)" />
  <path
     d="M 54.5016,0.31043511 C 54.0203,0.48240311 43.6138,5.8464201 31.3759,12.2308 14.4212,21.0759 8.90551,24.0641 8.20199,24.7865 c -2.22506,2.2842 -2.06106,5.9953 0.35851,8.1039 0.46176,0.4025 10.9798,6.0601 23.3737,12.5725 16.6097,8.728 22.8317,11.8815 23.6647,11.9949 0.7438,0.1012 1.5403,0.0188 2.329,-0.2405 0.6593,-0.2169 11.3209,-5.6382 23.6922,-12.0475 16.6028,-8.6016 22.7429,-11.8995 23.4469,-12.5936 2.208,-2.1788 2.103,-5.9023 -0.228,-8.0748 -0.7,-0.6521 -45.159,-23.66835989 -46.812,-24.23439189 -1.0836,-0.370737 -2.4111,-0.3546069 -3.5254,0.043427 z"
     id="backend"
     style="fill:#ff8066;fill-opacity:1"
     inkscape:label="backend"
     onclick="console.log(&quot;Мгер Карапетян&quot;)" />
</svg>
