<?xml version="1.0" encoding="UTF-8" standalone="no"?>
<svg
   xmlns:dc="http://purl.org/dc/elements/1.1/"
   xmlns:cc="http://creativecommons.org/ns#"
   xmlns:rdf="http://www.w3.org/1999/02/22-rdf-syntax-ns#"
   xmlns:svg="http://www.w3.org/2000/svg"
   xmlns="http://www.w3.org/2000/svg"
   xmlns:sodipodi="http://sodipodi.sourceforge.net/DTD/sodipodi-0.dtd"
   xmlns:inkscape="http://www.inkscape.org/namespaces/inkscape"
   width="16.666674"
   height="23.333286"
   viewBox="0 0 16.666674 23.333286"
   version="1.1"
   id="svg4"
   sodipodi:docname="pause.svg"
   style="fill:none"
   inkscape:version="0.92.5 (2060ec1f9f, 2020-04-08)">
  <metadata
     id="metadata10">
    <rdf:RDF>
      <cc:Work
         rdf:about="">
        <dc:format>image/svg+xml</dc:format>
        <dc:type
           rdf:resource="http://purl.org/dc/dcmitype/StillImage" />
        <dc:title></dc:title>
      </cc:Work>
    </rdf:RDF>
  </metadata>
  <defs
     id="defs8" />
  <sodipodi:namedview
     pagecolor="#ffffff"
     bordercolor="#666666"
     borderopacity="1"
     objecttolerance="10"
     gridtolerance="10"
     guidetolerance="10"
     inkscape:pageopacity="0"
     inkscape:pageshadow="2"
     inkscape:window-width="1326"
     inkscape:window-height="740"
     id="namedview6"
     showgrid="false"
     showborder="false"
     fit-margin-top="0"
     fit-margin-left="0"
     fit-margin-right="0"
     fit-margin-bottom="0"
     inkscape:zoom="9.8333333"
     inkscape:cx="8.333374"
     inkscape:cy="11.6666"
     inkscape:window-x="0"
     inkscape:window-y="0"
     inkscape:window-maximized="1"
     inkscape:current-layer="svg4" />
  <path
     d="m 5.000004,21.666687 c 0,0.442 -0.1756,0.8659 -0.48816,1.1785 -0.31256,0.3126 -0.73648,0.4881 -1.17851,0.4881 h -1.66667 c -0.44202,0 -0.86595,-0.1755 -1.17851,-0.4881 C 0.175595,22.532587 0,22.108687 0,21.666687 V 1.666667 C 0,1.224637 0.175595,0.800717 0.488154,0.488156 0.800714,0.175595 1.224644,0 1.666664,0 h 1.66667 c 0.44203,0 0.86595,0.175595 1.17851,0.488156 0.31256,0.312561 0.48816,0.736481 0.48816,1.178511 z m 11.66667,0 c 0,0.442 -0.1756,0.8659 -0.4882,1.1785 -0.3125,0.3126 -0.7364,0.4881 -1.1785,0.4881 h -1.6666 c -0.4421,0 -0.866,-0.1755 -1.1786,-0.4881 -0.3125,-0.3126 -0.4881,-0.7365 -0.4881,-1.1785 V 1.666667 c 0,-0.44203 0.1756,-0.86595 0.4881,-1.178511 C 12.467374,0.175595 12.891274,0 13.333374,0 h 1.6666 c 0.4421,0 0.866,0.175595 1.1785,0.488156 0.3126,0.312561 0.4882,0.736481 0.4882,1.178511 z"
     id="path2"
     inkscape:connector-curvature="0"
     style="clip-rule:evenodd;fill:#b0a8b9;fill-rule:evenodd" />
</svg>
