<svg width="18" height="24" viewBox="0 0 18 24" fill="none" xmlns="http://www.w3.org/2000/svg">
<path fill-rule="evenodd" clip-rule="evenodd" d="M5.66663 22C5.66663 22.442 5.49103 22.8659 5.17847 23.1785C4.86591 23.4911 4.44199 23.6666 3.99996 23.6666H2.33329C1.89127 23.6666 1.46734 23.4911 1.15478 23.1785C0.842221 22.8659 0.666626 22.442 0.666626 22V1.99998C0.666626 1.55795 0.842221 1.13403 1.15478 0.821469C1.46734 0.508908 1.89127 0.333313 2.33329 0.333313H3.99996C4.44199 0.333313 4.86591 0.508908 5.17847 0.821469C5.49103 1.13403 5.66663 1.55795 5.66663 1.99998V22ZM17.3333 22C17.3333 22.442 17.1577 22.8659 16.8451 23.1785C16.5326 23.4911 16.1087 23.6666 15.6666 23.6666H14C13.5579 23.6666 13.134 23.4911 12.8214 23.1785C12.5089 22.8659 12.3333 22.442 12.3333 22V1.99998C12.3333 1.55795 12.5089 1.13403 12.8214 0.821469C13.134 0.508908 13.5579 0.333313 14 0.333313H15.6666C16.1087 0.333313 16.5326 0.508908 16.8451 0.821469C17.1577 1.13403 17.3333 1.55795 17.3333 1.99998V22Z" fill="#B0A8B9"/>
</svg>
