<?xml version="1.0" encoding="UTF-8" standalone="no"?>
<!-- Generator: Adobe Illustrator 19.0.0, SVG Export Plug-In . SVG Version: 6.00 Build 0)  -->

<svg
   xmlns:dc="http://purl.org/dc/elements/1.1/"
   xmlns:cc="http://creativecommons.org/ns#"
   xmlns:rdf="http://www.w3.org/1999/02/22-rdf-syntax-ns#"
   xmlns:svg="http://www.w3.org/2000/svg"
   xmlns="http://www.w3.org/2000/svg"
   xmlns:sodipodi="http://sodipodi.sourceforge.net/DTD/sodipodi-0.dtd"
   xmlns:inkscape="http://www.inkscape.org/namespaces/inkscape"
   version="1.1"
   id="Layer_1"
   x="0px"
   y="0px"
   viewBox="0 0 43.283551 49.999999"
   xml:space="preserve"
   sodipodi:docname="play.svg"
   width="43.28355"
   height="50"
   inkscape:version="0.92.5 (2060ec1f9f, 2020-04-08)"><metadata
   id="metadata43"><rdf:RDF><cc:Work
       rdf:about=""><dc:format>image/svg+xml</dc:format><dc:type
         rdf:resource="http://purl.org/dc/dcmitype/StillImage" /><dc:title></dc:title></cc:Work></rdf:RDF></metadata><defs
   id="defs41">
	
	
</defs><sodipodi:namedview
   pagecolor="#ffffff"
   bordercolor="#666666"
   borderopacity="1"
   objecttolerance="10"
   gridtolerance="10"
   guidetolerance="10"
   inkscape:pageopacity="0"
   inkscape:pageshadow="2"
   inkscape:window-width="1326"
   inkscape:window-height="740"
   id="namedview39"
   showgrid="false"
   fit-margin-top="0"
   fit-margin-left="0"
   fit-margin-right="0"
   fit-margin-bottom="0"
   showborder="false"
   inkscape:zoom="2.8700505"
   inkscape:cx="81.437999"
   inkscape:cy="94.075002"
   inkscape:window-x="0"
   inkscape:window-y="0"
   inkscape:window-maximized="1"
   inkscape:current-layer="Layer_1" />
<polygon
   id="polygon4"
   points="343.938,242.5 181.062,148.425 181.062,336.575 "
   transform="matrix(0.26574542,0,0,0.26574542,-48.116397,-39.443264)"
   style="fill:#b0a8b9;fill-opacity:1" />
<g
   id="g8"
   transform="matrix(0.26574542,0,0,0.26574542,-48.116397,-39.443264)">
</g>
<g
   id="g10"
   transform="matrix(0.26574542,0,0,0.26574542,-48.116397,-39.443264)">
</g>
<g
   id="g12"
   transform="matrix(0.26574542,0,0,0.26574542,-48.116397,-39.443264)">
</g>
<g
   id="g14"
   transform="matrix(0.26574542,0,0,0.26574542,-48.116397,-39.443264)">
</g>
<g
   id="g16"
   transform="matrix(0.26574542,0,0,0.26574542,-48.116397,-39.443264)">
</g>
<g
   id="g18"
   transform="matrix(0.26574542,0,0,0.26574542,-48.116397,-39.443264)">
</g>
<g
   id="g20"
   transform="matrix(0.26574542,0,0,0.26574542,-48.116397,-39.443264)">
</g>
<g
   id="g22"
   transform="matrix(0.26574542,0,0,0.26574542,-48.116397,-39.443264)">
</g>
<g
   id="g24"
   transform="matrix(0.26574542,0,0,0.26574542,-48.116397,-39.443264)">
</g>
<g
   id="g26"
   transform="matrix(0.26574542,0,0,0.26574542,-48.116397,-39.443264)">
</g>
<g
   id="g28"
   transform="matrix(0.26574542,0,0,0.26574542,-48.116397,-39.443264)">
</g>
<g
   id="g30"
   transform="matrix(0.26574542,0,0,0.26574542,-48.116397,-39.443264)">
</g>
<g
   id="g32"
   transform="matrix(0.26574542,0,0,0.26574542,-48.116397,-39.443264)">
</g>
<g
   id="g34"
   transform="matrix(0.26574542,0,0,0.26574542,-48.116397,-39.443264)">
</g>
<g
   id="g36"
   transform="matrix(0.26574542,0,0,0.26574542,-48.116397,-39.443264)">
</g>
</svg>