<?xml version="1.0" encoding="UTF-8" standalone="no"?>
<svg
   width="16"
   height="16"
   viewBox="0 0 16 16"
   fill="none"
   version="1.1"
   id="svg11"
   sodipodi:docname="silverStar.svg"
   inkscape:version="1.1.1 (3bf5ae0d25, 2021-09-20)"
   xmlns:inkscape="http://www.inkscape.org/namespaces/inkscape"
   xmlns:sodipodi="http://sodipodi.sourceforge.net/DTD/sodipodi-0.dtd"
   xmlns="http://www.w3.org/2000/svg"
   xmlns:svg="http://www.w3.org/2000/svg">
  <defs
     id="defs15" />
  <sodipodi:namedview
     id="namedview13"
     pagecolor="#ffffff"
     bordercolor="#666666"
     borderopacity="1.0"
     inkscape:pageshadow="2"
     inkscape:pageopacity="0.0"
     inkscape:pagecheckerboard="0"
     showgrid="false"
     inkscape:zoom="52"
     inkscape:cx="8"
     inkscape:cy="8.0096154"
     inkscape:window-width="1920"
     inkscape:window-height="1017"
     inkscape:window-x="-8"
     inkscape:window-y="32"
     inkscape:window-maximized="1"
     inkscape:current-layer="svg11" />
  <path
     d="M6.92452 1.31904C7.02358 1.11816 7.17689 0.949015 7.36709 0.830739C7.55729 0.712464 7.77679 0.64978 8.00077 0.64978C8.22475 0.64978 8.44425 0.712464 8.63445 0.830739C8.82466 0.949015 8.97796 1.11816 9.07702 1.31904L10.745 4.70004L14.474 5.24004C14.6957 5.27223 14.9039 5.36582 15.0752 5.51023C15.2464 5.65464 15.3738 5.84409 15.443 6.05715C15.5121 6.27022 15.5202 6.49838 15.4664 6.71582C15.4126 6.93327 15.299 7.13131 15.1385 7.28754L12.44 9.91704L13.0775 13.631C13.1151 13.8515 13.0903 14.0782 13.0059 14.2853C12.9216 14.4925 12.781 14.6719 12.6 14.8034C12.4191 14.9349 12.205 15.0132 11.9819 15.0295C11.7588 15.0458 11.5356 14.9994 11.3375 14.8955L8.00002 13.142L4.66402 14.8955C4.4659 14.9994 4.24271 15.0458 4.01963 15.0295C3.79654 15.0132 3.58245 14.9349 3.4015 14.8034C3.22056 14.6719 3.07997 14.4925 2.9956 14.2853C2.91123 14.0782 2.88644 13.8515 2.92402 13.631L3.56002 9.91704L0.861522 7.28604C0.701407 7.12965 0.58822 6.9316 0.534749 6.71427C0.481278 6.49693 0.489654 6.26897 0.558931 6.05615C0.628209 5.84332 0.755626 5.65411 0.926787 5.5099C1.09795 5.36568 1.30603 5.27221 1.52752 5.24004L5.25652 4.69854L6.92302 1.31904H6.92452Z"
     fill="#C1C1C1"
     id="path2" />
  <mask
     id="mask0_112_1819"
     style="mask-type:alpha"
     maskUnits="userSpaceOnUse"
     x="0"
     y="0"
     width="16"
     height="16">
    <path
       d="M6.92452 1.31904C7.02358 1.11816 7.17689 0.949015 7.36709 0.830739C7.55729 0.712464 7.77679 0.64978 8.00077 0.64978C8.22475 0.64978 8.44425 0.712464 8.63445 0.830739C8.82466 0.949015 8.97796 1.11816 9.07702 1.31904L10.745 4.70004L14.474 5.24004C14.6957 5.27223 14.9039 5.36582 15.0752 5.51023C15.2464 5.65464 15.3738 5.84409 15.443 6.05715C15.5121 6.27022 15.5202 6.49838 15.4664 6.71582C15.4126 6.93327 15.299 7.13131 15.1385 7.28754L12.44 9.91704L13.0775 13.631C13.1151 13.8515 13.0903 14.0782 13.0059 14.2853C12.9216 14.4925 12.781 14.6719 12.6 14.8034C12.4191 14.9349 12.205 15.0132 11.9819 15.0295C11.7588 15.0458 11.5356 14.9994 11.3375 14.8955L8.00002 13.142L4.66402 14.8955C4.4659 14.9994 4.24271 15.0458 4.01963 15.0295C3.79654 15.0132 3.58245 14.9349 3.4015 14.8034C3.22056 14.6719 3.07997 14.4925 2.9956 14.2853C2.91123 14.0782 2.88644 13.8515 2.92402 13.631L3.56002 9.91704L0.861522 7.28604C0.701407 7.12965 0.58822 6.9316 0.534749 6.71427C0.481278 6.49693 0.489654 6.26897 0.558931 6.05615C0.628209 5.84332 0.755626 5.65411 0.926787 5.5099C1.09795 5.36568 1.30603 5.27221 1.52752 5.24004L5.25652 4.69854L6.92302 1.31904H6.92452Z"
       fill="#FFC266"
       id="path4" />
  </mask>
  <g
     mask="url(#mask0_112_1819)"
     id="g9">
    <rect
       opacity="0.4"
       x="10.5759"
       y="2.3835399"
       width="2.8336205"
       height="14.098825"
       transform="rotate(45,10.5759,2.38354)"
       fill="#ffffff"
       id="rect7" />
  </g>
</svg>
